<mxfile host="drawio-plugin" modified="2023-04-26T18:03:34.238Z" agent="5.0 (Windows NT 6.2; Win64; x64) AppleWebKit/537.36 (KHTML, like Gecko) Chrome/104.0.5112.102 Safari/537.36" etag="C8qv7zEUw_Z1bev_UpYQ" version="20.5.3" type="embed"><diagram name="Page-1" id="Y8S6gt6hEFgdLeqecjt1"><mxGraphModel dx="975" dy="631" grid="1" gridSize="10" guides="1" tooltips="1" connect="1" arrows="1" fold="1" page="1" pageScale="1" pageWidth="827" pageHeight="1169" math="0" shadow="0"><root><mxCell id="0"/><mxCell id="1" parent="0"/><mxCell id="JmYzvs7YNFM8VFWsJZcx-5" style="edgeStyle=orthogonalEdgeStyle;rounded=1;orthogonalLoop=1;jettySize=auto;html=1;" parent="1" source="JmYzvs7YNFM8VFWsJZcx-4" edge="1"><mxGeometry relative="1" as="geometry"><mxPoint x="240" y="720" as="targetPoint"/></mxGeometry></mxCell><mxCell id="JmYzvs7YNFM8VFWsJZcx-4" value="bot" style="text;html=1;strokeColor=none;fillColor=none;align=center;verticalAlign=middle;whiteSpace=wrap;rounded=1;" parent="1" vertex="1"><mxGeometry x="210" y="120" width="60" height="30" as="geometry"/></mxCell><mxCell id="JmYzvs7YNFM8VFWsJZcx-10" style="edgeStyle=orthogonalEdgeStyle;rounded=1;orthogonalLoop=1;jettySize=auto;html=1;startArrow=none;" parent="1" source="2" edge="1"><mxGeometry relative="1" as="geometry"><mxPoint x="400" y="720" as="targetPoint"/><Array as="points"><mxPoint x="400" y="570"/><mxPoint x="400" y="570"/></Array></mxGeometry></mxCell><mxCell id="JmYzvs7YNFM8VFWsJZcx-7" value="server" style="text;html=1;strokeColor=none;fillColor=none;align=center;verticalAlign=middle;whiteSpace=wrap;rounded=1;" parent="1" vertex="1"><mxGeometry x="370" y="120" width="60" height="30" as="geometry"/></mxCell><mxCell id="JmYzvs7YNFM8VFWsJZcx-11" style="edgeStyle=orthogonalEdgeStyle;rounded=1;orthogonalLoop=1;jettySize=auto;html=1;" parent="1" edge="1"><mxGeometry relative="1" as="geometry"><mxPoint x="560" y="720" as="targetPoint"/><mxPoint x="559.8" y="150" as="sourcePoint"/><Array as="points"><mxPoint x="560" y="340"/></Array></mxGeometry></mxCell><mxCell id="JmYzvs7YNFM8VFWsJZcx-8" value="db" style="text;html=1;strokeColor=none;fillColor=none;align=center;verticalAlign=middle;whiteSpace=wrap;rounded=1;" parent="1" vertex="1"><mxGeometry x="530" y="120" width="60" height="30" as="geometry"/></mxCell><mxCell id="JmYzvs7YNFM8VFWsJZcx-17" value="" style="html=1;points=[];perimeter=orthogonalPerimeter;outlineConnect=0;targetShapes=umlLifeline;portConstraint=eastwest;newEdgeStyle={&quot;edgeStyle&quot;:&quot;elbowEdgeStyle&quot;,&quot;elbow&quot;:&quot;vertical&quot;,&quot;curved&quot;:0,&quot;rounded&quot;:0};rounded=1;fillColor=#76608a;strokeColor=#432D57;fontColor=#ffffff;" parent="1" vertex="1"><mxGeometry x="240" y="170" width="10" height="350" as="geometry"/></mxCell><mxCell id="JmYzvs7YNFM8VFWsJZcx-18" value="ign input" style="html=1;verticalAlign=bottom;endArrow=block;edgeStyle=elbowEdgeStyle;elbow=vertical;rounded=1;" parent="1" target="JmYzvs7YNFM8VFWsJZcx-17" edge="1"><mxGeometry relative="1" as="geometry"><mxPoint x="80" y="170" as="sourcePoint"/></mxGeometry></mxCell><mxCell id="JmYzvs7YNFM8VFWsJZcx-19" value="confirmation/denial" style="html=1;verticalAlign=bottom;endArrow=open;dashed=1;endSize=8;edgeStyle=elbowEdgeStyle;elbow=vertical;rounded=1;" parent="1" source="JmYzvs7YNFM8VFWsJZcx-17" edge="1"><mxGeometry x="0.125" relative="1" as="geometry"><mxPoint x="80" y="340" as="targetPoint"/><Array as="points"><mxPoint x="230" y="340"/><mxPoint x="220" y="350"/><mxPoint x="230" y="480"/></Array><mxPoint as="offset"/></mxGeometry></mxCell><mxCell id="JmYzvs7YNFM8VFWsJZcx-21" style="edgeStyle=orthogonalEdgeStyle;rounded=1;orthogonalLoop=1;jettySize=auto;html=1;" parent="1" source="JmYzvs7YNFM8VFWsJZcx-20" edge="1"><mxGeometry relative="1" as="geometry"><mxPoint x="80" y="720" as="targetPoint"/></mxGeometry></mxCell><mxCell id="JmYzvs7YNFM8VFWsJZcx-20" value="user" style="text;html=1;strokeColor=none;fillColor=none;align=center;verticalAlign=middle;whiteSpace=wrap;rounded=1;" parent="1" vertex="1"><mxGeometry x="50" y="120" width="60" height="30" as="geometry"/></mxCell><mxCell id="JmYzvs7YNFM8VFWsJZcx-22" value="" style="html=1;points=[];perimeter=orthogonalPerimeter;outlineConnect=0;targetShapes=umlLifeline;portConstraint=eastwest;newEdgeStyle={&quot;edgeStyle&quot;:&quot;elbowEdgeStyle&quot;,&quot;elbow&quot;:&quot;vertical&quot;,&quot;curved&quot;:0,&quot;rounded&quot;:0};rounded=1;fillColor=#76608a;fontColor=#ffffff;strokeColor=#432D57;" parent="1" vertex="1"><mxGeometry x="400" y="180" width="10" height="300" as="geometry"/></mxCell><mxCell id="JmYzvs7YNFM8VFWsJZcx-23" value="get HypixelPlayer by ign" style="html=1;verticalAlign=bottom;endArrow=block;edgeStyle=elbowEdgeStyle;elbow=vertical;rounded=1;" parent="1" target="JmYzvs7YNFM8VFWsJZcx-22" edge="1"><mxGeometry relative="1" as="geometry"><mxPoint x="260" y="180" as="sourcePoint"/><Array as="points"><mxPoint x="250" y="180"/></Array></mxGeometry></mxCell><mxCell id="JmYzvs7YNFM8VFWsJZcx-24" value="return tag match" style="html=1;verticalAlign=bottom;endArrow=open;dashed=1;endSize=8;edgeStyle=elbowEdgeStyle;elbow=vertical;rounded=1;" parent="1" source="JmYzvs7YNFM8VFWsJZcx-22" edge="1"><mxGeometry relative="1" as="geometry"><mxPoint x="250" y="330" as="targetPoint"/><Array as="points"><mxPoint x="380" y="330"/><mxPoint x="360" y="470"/><mxPoint x="360" y="280"/><mxPoint x="380" y="320"/></Array></mxGeometry></mxCell><mxCell id="JmYzvs7YNFM8VFWsJZcx-25" value="" style="html=1;points=[];perimeter=orthogonalPerimeter;outlineConnect=0;targetShapes=umlLifeline;portConstraint=eastwest;newEdgeStyle={&quot;edgeStyle&quot;:&quot;elbowEdgeStyle&quot;,&quot;elbow&quot;:&quot;vertical&quot;,&quot;curved&quot;:0,&quot;rounded&quot;:0};rounded=1;fillColor=#76608a;fontColor=#ffffff;strokeColor=#432D57;" parent="1" vertex="1"><mxGeometry x="560" y="190" width="10" height="26" as="geometry"/></mxCell><mxCell id="JmYzvs7YNFM8VFWsJZcx-26" value="get HypixelPlayer by ign" style="html=1;verticalAlign=bottom;endArrow=block;edgeStyle=elbowEdgeStyle;elbow=vertical;rounded=1;" parent="1" target="JmYzvs7YNFM8VFWsJZcx-25" edge="1"><mxGeometry relative="1" as="geometry"><mxPoint x="420" y="190" as="sourcePoint"/><Array as="points"><mxPoint x="410" y="190"/></Array></mxGeometry></mxCell><mxCell id="JmYzvs7YNFM8VFWsJZcx-27" value="return HypixelPlayer" style="html=1;verticalAlign=bottom;endArrow=open;dashed=1;endSize=8;edgeStyle=elbowEdgeStyle;elbow=vertical;rounded=1;" parent="1" source="JmYzvs7YNFM8VFWsJZcx-25" target="JmYzvs7YNFM8VFWsJZcx-22" edge="1"><mxGeometry relative="1" as="geometry"><mxPoint x="490" y="265" as="targetPoint"/><Array as="points"><mxPoint x="510" y="210"/><mxPoint x="520" y="220"/></Array></mxGeometry></mxCell><mxCell id="JmYzvs7YNFM8VFWsJZcx-34" value="" style="html=1;points=[];perimeter=orthogonalPerimeter;outlineConnect=0;targetShapes=umlLifeline;portConstraint=eastwest;newEdgeStyle={&quot;edgeStyle&quot;:&quot;elbowEdgeStyle&quot;,&quot;elbow&quot;:&quot;vertical&quot;,&quot;curved&quot;:0,&quot;rounded&quot;:0};rounded=1;fillColor=#647687;fontColor=#ffffff;strokeColor=#314354;" parent="1" vertex="1"><mxGeometry x="405" y="246" width="10" height="40" as="geometry"/></mxCell><mxCell id="JmYzvs7YNFM8VFWsJZcx-35" value="get player from &lt;br&gt;Hypixel API" style="html=1;align=left;spacingLeft=2;endArrow=block;rounded=1;edgeStyle=orthogonalEdgeStyle;rounded=0;" parent="1" target="JmYzvs7YNFM8VFWsJZcx-34" edge="1"><mxGeometry relative="1" as="geometry"><mxPoint x="410" y="226" as="sourcePoint"/><Array as="points"><mxPoint x="440" y="256"/></Array></mxGeometry></mxCell><mxCell id="JmYzvs7YNFM8VFWsJZcx-36" value="if not null: deny" style="html=1;verticalAlign=bottom;endArrow=open;dashed=1;endSize=8;edgeStyle=elbowEdgeStyle;elbow=vertical;rounded=1;" parent="1" edge="1"><mxGeometry relative="1" as="geometry"><mxPoint x="250" y="220" as="targetPoint"/><mxPoint x="400" y="220" as="sourcePoint"/><Array as="points"><mxPoint x="380" y="220"/></Array></mxGeometry></mxCell><mxCell id="JmYzvs7YNFM8VFWsJZcx-40" value="" style="html=1;points=[];perimeter=orthogonalPerimeter;outlineConnect=0;targetShapes=umlLifeline;portConstraint=eastwest;newEdgeStyle={&quot;edgeStyle&quot;:&quot;elbowEdgeStyle&quot;,&quot;elbow&quot;:&quot;vertical&quot;,&quot;curved&quot;:0,&quot;rounded&quot;:0};rounded=1;fillColor=#647687;fontColor=#ffffff;strokeColor=#314354;" parent="1" vertex="1"><mxGeometry x="405" y="310" width="10" height="40" as="geometry"/></mxCell><mxCell id="JmYzvs7YNFM8VFWsJZcx-41" value="if match: Mojang API" style="html=1;align=left;spacingLeft=2;endArrow=block;rounded=1;edgeStyle=orthogonalEdgeStyle;rounded=0;" parent="1" target="JmYzvs7YNFM8VFWsJZcx-40" edge="1"><mxGeometry relative="1" as="geometry"><mxPoint x="410" y="290" as="sourcePoint"/><Array as="points"><mxPoint x="440" y="320"/></Array></mxGeometry></mxCell><mxCell id="JmYzvs7YNFM8VFWsJZcx-44" value="" style="html=1;points=[];perimeter=orthogonalPerimeter;outlineConnect=0;targetShapes=umlLifeline;portConstraint=eastwest;newEdgeStyle={&quot;edgeStyle&quot;:&quot;elbowEdgeStyle&quot;,&quot;elbow&quot;:&quot;vertical&quot;,&quot;curved&quot;:0,&quot;rounded&quot;:0};rounded=1;fillColor=#76608a;fontColor=#ffffff;strokeColor=#432D57;" parent="1" vertex="1"><mxGeometry x="560" y="340" width="10" height="20" as="geometry"/></mxCell><mxCell id="JmYzvs7YNFM8VFWsJZcx-45" value="save Skin, Mojang, Hypixel" style="html=1;verticalAlign=bottom;endArrow=block;edgeStyle=elbowEdgeStyle;elbow=vertical;rounded=1;exitX=1.5;exitY=0.278;exitDx=0;exitDy=0;exitPerimeter=0;" parent="1" target="JmYzvs7YNFM8VFWsJZcx-44" edge="1"><mxGeometry relative="1" as="geometry"><mxPoint x="416" y="340.02" as="sourcePoint"/><mxPoint x="556" y="340" as="targetPoint"/></mxGeometry></mxCell><mxCell id="JmYzvs7YNFM8VFWsJZcx-47" value="" style="html=1;points=[];perimeter=orthogonalPerimeter;outlineConnect=0;targetShapes=umlLifeline;portConstraint=eastwest;newEdgeStyle={&quot;edgeStyle&quot;:&quot;elbowEdgeStyle&quot;,&quot;elbow&quot;:&quot;vertical&quot;,&quot;curved&quot;:0,&quot;rounded&quot;:0};rounded=1;fillColor=#647687;fontColor=#ffffff;strokeColor=#314354;" parent="1" vertex="1"><mxGeometry x="405" y="380" width="10" height="90" as="geometry"/></mxCell><mxCell id="JmYzvs7YNFM8VFWsJZcx-48" value="if guild: get guild from&lt;br&gt;Hypixel API" style="html=1;align=left;spacingLeft=2;endArrow=block;rounded=1;edgeStyle=orthogonalEdgeStyle;rounded=0;" parent="1" target="JmYzvs7YNFM8VFWsJZcx-47" edge="1"><mxGeometry relative="1" as="geometry"><mxPoint x="410" y="360" as="sourcePoint"/><Array as="points"><mxPoint x="440" y="390"/></Array></mxGeometry></mxCell><mxCell id="JmYzvs7YNFM8VFWsJZcx-49" value="" style="html=1;points=[];perimeter=orthogonalPerimeter;outlineConnect=0;targetShapes=umlLifeline;portConstraint=eastwest;newEdgeStyle={&quot;edgeStyle&quot;:&quot;elbowEdgeStyle&quot;,&quot;elbow&quot;:&quot;vertical&quot;,&quot;curved&quot;:0,&quot;rounded&quot;:0};rounded=1;fillColor=#76608a;fontColor=#ffffff;strokeColor=#432D57;" parent="1" vertex="1"><mxGeometry x="560" y="410" width="10" height="30" as="geometry"/></mxCell><mxCell id="JmYzvs7YNFM8VFWsJZcx-50" value="get guild by id" style="html=1;verticalAlign=bottom;endArrow=block;edgeStyle=elbowEdgeStyle;elbow=vertical;rounded=1;" parent="1" target="JmYzvs7YNFM8VFWsJZcx-49" edge="1"><mxGeometry x="0.3023" relative="1" as="geometry"><mxPoint x="485" y="410" as="sourcePoint"/><mxPoint x="555" y="410" as="targetPoint"/><Array as="points"><mxPoint x="415" y="410"/></Array><mxPoint as="offset"/></mxGeometry></mxCell><mxCell id="JmYzvs7YNFM8VFWsJZcx-51" value="return Guild" style="html=1;verticalAlign=bottom;endArrow=open;dashed=1;endSize=8;edgeStyle=elbowEdgeStyle;elbow=vertical;rounded=1;" parent="1" source="JmYzvs7YNFM8VFWsJZcx-49" target="JmYzvs7YNFM8VFWsJZcx-47" edge="1"><mxGeometry relative="1" as="geometry"><mxPoint x="420" y="430" as="targetPoint"/><Array as="points"><mxPoint x="540" y="430"/></Array></mxGeometry></mxCell><mxCell id="JmYzvs7YNFM8VFWsJZcx-54" value="" style="html=1;points=[];perimeter=orthogonalPerimeter;outlineConnect=0;targetShapes=umlLifeline;portConstraint=eastwest;newEdgeStyle={&quot;edgeStyle&quot;:&quot;elbowEdgeStyle&quot;,&quot;elbow&quot;:&quot;vertical&quot;,&quot;curved&quot;:0,&quot;rounded&quot;:0};rounded=1;fillColor=#76608a;fontColor=#ffffff;strokeColor=#432D57;" parent="1" vertex="1"><mxGeometry x="560" y="460" width="10" height="20" as="geometry"/></mxCell><mxCell id="JmYzvs7YNFM8VFWsJZcx-55" value="if updateable: update/create" style="html=1;verticalAlign=bottom;endArrow=block;edgeStyle=elbowEdgeStyle;elbow=vertical;rounded=1;" parent="1" target="JmYzvs7YNFM8VFWsJZcx-54" edge="1"><mxGeometry x="0.3488" relative="1" as="geometry"><mxPoint x="485" y="460" as="sourcePoint"/><mxPoint x="555" y="460" as="targetPoint"/><Array as="points"><mxPoint x="415" y="460"/></Array><mxPoint as="offset"/></mxGeometry></mxCell><mxCell id="3" value="if match: create DiscordUser" style="html=1;verticalAlign=bottom;endArrow=block;entryX=0;entryY=0;rounded=0;" edge="1" target="2" parent="1" source="JmYzvs7YNFM8VFWsJZcx-17"><mxGeometry relative="1" as="geometry"><mxPoint x="300" y="520" as="sourcePoint"/></mxGeometry></mxCell><mxCell id="2" value="" style="html=1;points=[];perimeter=orthogonalPerimeter;fillColor=#76608a;fontColor=#ffffff;strokeColor=#432D57;" vertex="1" parent="1"><mxGeometry x="400" y="500" width="10" height="40" as="geometry"/></mxCell><mxCell id="5" value="" style="edgeStyle=orthogonalEdgeStyle;rounded=1;orthogonalLoop=1;jettySize=auto;html=1;endArrow=none;entryX=-0.014;entryY=-0.002;entryDx=0;entryDy=0;entryPerimeter=0;" edge="1" parent="1" source="JmYzvs7YNFM8VFWsJZcx-7" target="2"><mxGeometry relative="1" as="geometry"><mxPoint x="400" y="720" as="targetPoint"/><mxPoint x="400" y="150" as="sourcePoint"/></mxGeometry></mxCell><mxCell id="6" value="" style="html=1;points=[];perimeter=orthogonalPerimeter;fillColor=#76608a;fontColor=#ffffff;strokeColor=#432D57;" vertex="1" parent="1"><mxGeometry x="560" y="510" width="10" height="20" as="geometry"/></mxCell><mxCell id="7" value="create DiscordUser" style="html=1;verticalAlign=bottom;endArrow=block;entryX=0;entryY=0;rounded=0;exitX=1.071;exitY=0.268;exitDx=0;exitDy=0;exitPerimeter=0;" edge="1" target="6" parent="1" source="2"><mxGeometry relative="1" as="geometry"><mxPoint x="490" y="510" as="sourcePoint"/></mxGeometry></mxCell></root></mxGraphModel></diagram></mxfile>